#!OML:ASF I:\Actors\actors\Patient Classification 2\Patient 1\Session 1\actor1.ASF
:FULLY-SPECIFIED
:DEGREES
403
root -0.667453 18.7571 5.41444 4.22843 -6.79095 -3.55575
lowerback 5.86672 2.48043 -3.466
upperback -0.879187 2.96855 -1.92426
thorax -4.2757 1.52991 -0.332704
lowerneck -8.37323 -4.03359 0.0696657
upperneck 23.3867 -9.81862 16.8572
head 9.70048 -2.93813 4.79389
rclavicle 1.98785e-016 -9.54166e-015
rhumerus 42.0714 40.2927 -27.3326
rradius 107.574
rwrist 2.89934
rhand -12.9866 -35.5394
rfingers 7.12502
rthumb 13.1061 -65.1075
lclavicle 1.98785e-016 -9.54166e-015
lhumerus 0.419372 21.4175 81.7447
lradius 123.033
lwrist 104.082
lhand -32.0138 -28.7472
lfingers 7.12502
lthumb -5.26201 1.16746
rfemur 0 0 0
rtibia 0
rfoot 0 0
rtoes 0
lfemur -6.61621 -5.98945 -10.864
ltibia 22.3268
lfoot -26.2976 19.3309
ltoes -53.3242
404
root -0.669118 18.7577 5.40686 4.22508 -6.84658 -3.62717
lowerback 5.96684 2.53933 -3.36468
upperback -0.856407 3.04842 -1.96524
thorax -4.30256 1.56647 -0.443386
lowerneck -8.52238 -3.90241 0.26124
upperneck 23.5851 -9.70058 16.8302
head 9.78101 -2.8477 4.77035
rclavicle 1.05356e-014 -2.8625e-014
rhumerus 43.7225 40.5028 -27.3568
rradius 107.871
rwrist 2.09866
rhand -12.438 -35.8085
rfingers 7.12502
rthumb 13.6348 -65.3419
lclavicle 1.05356e-014 -2.8625e-014
lhumerus 0.516494 20.8945 82.0354
lradius 122.952
lwrist 103.896
lhand -31.8631 -28.8991
lfingers 7.12502
lthumb -5.11659 1.01913
rfemur 0 0 0
rtibia 0
rfoot 0 0
rtoes 0
lfemur -6.61999 -6.1228 -10.8006
ltibia 22.3557
lfoot -26.4197 19.5055
ltoes -53.2859
405
root -0.669857 18.7578 5.40023 4.23251 -6.90923 -3.66348
lowerback 5.63984 2.51207 -3.50065
upperback -0.573327 3.03296 -1.84586
thorax -3.83733 1.55743 -0.217515
lowerneck -8.78326 -3.65002 0.681774
upperneck 23.711 -9.32758 16.3473
head 9.79406 -2.66262 4.56499
rclavicle -5.32743e-014 1.74931e-014
rhumerus 45.8882 40.5233 -27.0271
rradius 108.203
rwrist 1.13447
rhand -11.9585 -36.1079
rfingers 7.12502
rthumb 14.097 -65.6097
lclavicle -5.32743e-014 1.74931e-014
lhumerus 0.904734 20.799 82.531
lradius 122.898
lwrist 103.729
lhand -31.6567 -28.9607
lfingers 7.12502
lthumb -4.91722 0.962199
rfemur 0 0 0
rtibia 0
rfoot 0 0
rtoes 0
lfemur -6.63557 -6.14088 -10.7726
ltibia 22.3714
lfoot -26.4432 19.644
ltoes -53.3798
406
root -0.669729 18.7585 5.3953 4.2593 -6.99859 -3.69052
lowerback 5.95954 2.59458 -3.2474
upperback -0.758853 3.13371 -1.97863
thorax -4.19131 1.60433 -0.527042
lowerneck -8.67462 -3.53779 1.25746
upperneck 23.983 -9.22524 16.0207
head 9.82221 -2.58258 4.36978
rclavicle -2.13694e-014 1.74931e-014
rhumerus 46.8616 40.949 -27.6534
rradius 108.629
rwrist 0.0944761
rhand -11.8689 -36.4219
rfingers 7.12502
rthumb 14.1834 -65.9177
lclavicle -2.13694e-014 1.74931e-014
lhumerus 0.532574 20.1969 82.4762
lradius 122.855
lwrist 103.751
lhand -31.438 -29.1099
lfingers 7.12502
lthumb -4.70607 0.817811
rfemur 0 0 0
rtibia 0
rfoot 0 0
rtoes 0
lfemur -6.6589 -6.03954 -10.7467
ltibia 22.3692
lfoot -26.4121 19.6781
ltoes -53.4072
407
root -0.669108 18.7586 5.3916 4.27211 -7.08414 -3.70732
lowerback 5.73558 2.57977 -3.27583
upperback -0.531711 3.13564 -1.84099
thorax -3.83833 1.60348 -0.350257
lowerneck -8.97837 -3.45814 1.0659
upperneck 24.0233 -9.15482 16.2088
head 9.90875 -2.53084 4.47785
rclavicle 4.19436e-014 -1.59028e-015
rhumerus 48.6983 41.0133 -27.5315
rradius 109.012
rwrist -1.0299
rhand -12.1033 -36.5931
rfingers 7.12502
rthumb 13.9574 -66.1046
lclavicle 4.19436e-014 -1.59028e-015
lhumerus 0.640761 20.0929 82.8448
lradius 122.824
lwrist 103.65
lhand -31.2249 -29.2881
lfingers 7.12502
lthumb -4.50035 0.644052
rfemur 0 0 0
rtibia 0
rfoot 0 0
rtoes 0
lfemur -6.6495 -6.11073 -10.7498
ltibia 22.3582
lfoot -26.5101 19.7874
ltoes -53.3083
408
root -0.668279 18.7584 5.38715 4.26419 -7.16682 -3.68143
lowerback 6.23177 2.63638 -3.02534
upperback -0.700693 3.19902 -1.88479
thorax -4.27817 1.63263 -0.571937
lowerneck -9.07333 -3.49719 0.979328
upperneck 24.1814 -9.31103 16.5141
head 10.0241 -2.56489 4.59233
rclavicle 4.37326e-015 1.27222e-014
rhumerus 49.436 41.5321 -28.1043
rradius 109.362
rwrist -2.02484
rhand -12.336 -36.6067
rfingers 7.12502
rthumb 13.7332 -66.1335
lclavicle 4.37326e-015 1.27222e-014
lhumerus 0.158368 19.5384 82.9059
lradius 122.814
lwrist 103.376
lhand -30.9553 -29.9338
lfingers 7.12502
lthumb -4.24001 0.00373526
rfemur 0 0 0
rtibia 0
rfoot 0 0
rtoes 0
lfemur -6.61529 -6.33415 -10.814
ltibia 22.3395
lfoot -26.7041 19.9994
ltoes -53.2125
409
root -0.667028 18.759 5.38302 4.25638 -7.23671 -3.63383
lowerback 6.38705 2.58928 -3.01108
upperback -0.529213 3.14082 -1.75143
thorax -4.19301 1.60318 -0.438095
lowerneck -9.64267 -3.41226 1.04672
upperneck 24.3024 -9.23589 16.393
head 10.1657 -2.49956 4.5429
rclavicle 1.46107e-014 -1.59028e-014
rhumerus 50.5309 41.7076 -28.1302
rradius 109.717
rwrist -3.0639
rhand -12.6129 -36.6346
rfingers 7.12502
rthumb 13.4663 -66.1793
lclavicle 1.46107e-014 -1.59028e-014
lhumerus 0.152649 19.3601 83.1901
lradius 122.746
lwrist 102.907
lhand -30.5991 -30.9881
lfingers 7.12502
lthumb -3.89597 -1.04397
rfemur 0 0 0
rtibia 0
rfoot 0 0
rtoes 0
lfemur -6.58522 -6.38705 -10.8834
ltibia 22.3135
lfoot -26.7773 20.0653
ltoes -53.1797
410
root -0.665843 18.7596 5.38061 4.26224 -7.24912 -3.57109
lowerback 6.16487 2.51062 -3.09243
upperback -0.338571 3.05295 -1.56608
thorax -3.88272 1.56015 -0.17545
lowerneck -9.66123 -3.38329 0.818787
upperneck 24.3188 -9.20568 16.5805
head 10.1918 -2.48628 4.65651
rclavicle 1.2921e-014 9.54166e-015
rhumerus 51.3327 41.9859 -28.1029
rradius 110.08
rwrist -3.99698
rhand -13.0378 -36.6899
rfingers 7.12502
rthumb 13.0568 -66.2612
lclavicle 1.2921e-014 9.54166e-015
lhumerus 0.0138631 19.4752 83.3962
lradius 122.778
lwrist 102.787
lhand -30.5417 -31.2312
lfingers 7.12502
lthumb -3.84059 -1.28611
rfemur 0 0 0
rtibia 0
rfoot 0 0
rtoes 0
lfemur -6.58909 -6.35038 -10.95
ltibia 22.2915
lfoot -26.755 20.0281
ltoes -53.176
411
root -0.664707 18.7592 5.37889 4.28514 -7.21136 -3.50708
lowerback 6.68104 2.53171 -2.72391
upperback -0.664698 3.0745 -1.6699
thorax -4.48742 1.56701 -0.525896
lowerneck -9.35027 -3.56244 0.571421
upperneck 24.6414 -9.6022 17.1269
head 10.3356 -2.63187 4.87379
rclavicle 1.88845e-015 6.36111e-015
rhumerus 50.607 42.7266 -29.0551
rradius 110.309
rwrist -4.60285
rhand -13.2043 -36.5401
rfingers 7.12502
rthumb 12.8962 -66.1217
lclavicle 1.88845e-015 6.36111e-015
lhumerus -0.813791 19.2345 83.0832
lradius 122.984
lwrist 103.052
lhand -31.1648 -30.8022
lfingers 7.12502
lthumb -4.44224 -0.868744
rfemur 0 0 0
rtibia 0
rfoot 0 0
rtoes 0
lfemur -6.64172 -6.19014 -10.9979
ltibia 22.2771
lfoot -26.5996 19.9133
ltoes -53.2654
412
root -0.663107 18.7594 5.37646 4.28986 -7.14445 -3.45295
lowerback 6.76439 2.43112 -2.54996
upperback -0.54858 2.95925 -1.56357
thorax -4.40829 1.5061 -0.500569
lowerneck -9.54445 -3.60877 0.410464
upperneck 24.7289 -9.68385 17.175
head 10.4254 -2.66447 4.91171
rclavicle 9.34288e-015 -1.43125e-014
rhumerus 50.5121 42.8836 -29.2076
rradius 110.35
rwrist -5.35718
rhand -13.0845 -36.4092
rfingers 7.12502
rthumb 13.0118 -65.9834
lclavicle 9.34288e-015 -1.43125e-014
lhumerus -0.975459 19.516 83.0748
lradius 123.233
lwrist 103.184
lhand -32.1631 -30.6618
lfingers 7.12502
lthumb -5.40616 -0.750727
rfemur 0 0 0
rtibia 0
rfoot 0 0
rtoes 0
lfemur -6.69733 -5.92355 -11.0234
ltibia 22.2697
lfoot -26.3394 19.7073
ltoes -53.4044
413
root -0.661594 18.7598 5.37401 4.25465 -7.04774 -3.38557
lowerback 6.5386 2.25729 -2.51338
upperback -0.175931 2.75685 -1.35692
thorax -3.8995 1.40293 -0.264687
lowerneck -9.7557 -3.57718 0.382604
upperneck 24.5387 -9.55394 16.953
head 10.3684 -2.63217 4.83751
rclavicle 5.76476e-015 -7.15625e-015
rhumerus 50.6126 42.7241 -29.0059
rradius 110.25
rwrist -6.42064
rhand -12.7967 -35.8564
rfingers 7.12502
rthumb 13.2892 -65.4128
lclavicle 5.76476e-015 -7.15625e-015
lhumerus -0.819208 20.0667 83.1318
lradius 123.466
lwrist 103.401
lhand -32.6782 -30.7043
lfingers 7.12502
lthumb -5.90354 -0.80657
rfemur 0 0 0
rtibia 0
rfoot 0 0
rtoes 0
lfemur -6.71887 -5.82308 -11.0754
ltibia 22.2753
lfoot -26.1703 19.5631
ltoes -53.4726
414
root -0.660641 18.7613 5.37281 4.25278 -6.94042 -3.3189
lowerback 7.05973 2.21847 -2.04452
upperback -0.404894 2.71589 -1.45856
thorax -4.40272 1.37436 -0.656334
lowerneck -9.32281 -3.76107 0.472309
upperneck 24.5439 -9.83504 17.0442
head 10.3166 -2.76637 4.82655
rclavicle -3.47873e-015 -5.56597e-015
rhumerus 48.9283 43.098 -30.0142
rradius 110.047
rwrist -7.29032
rhand -12.194 -34.802
rfingers 7.12502
rthumb 13.8701 -64.3195
lclavicle -3.47873e-015 -5.56597e-015
lhumerus -1.52377 20.0136 82.6072
lradius 123.732
lwrist 103.915
lhand -32.7727 -30.3097
lfingers 7.12502
lthumb -5.99473 -0.414499
rfemur 0 0 0
rtibia 0
rfoot 0 0
rtoes 0
lfemur -6.77796 -5.65593 -11.1141
ltibia 22.2902
lfoot -25.9994 19.3108
ltoes -53.4436
415
root -0.659061 18.7643 5.37116 4.32238 -6.80925 -3.28511
lowerback 7.14729 2.13566 -1.74878
upperback -0.413911 2.63154 -1.38469
thorax -4.45065 1.32683 -0.739787
lowerneck -9.00315 -3.9361 0.364185
upperneck 24.4697 -10.0313 17.0392
head 10.2488 -2.88938 4.82031
rclavicle -6.26172e-015 2.38542e-015
rhumerus 47.4347 43.174 -30.5047
rradius 109.815
rwrist -7.81736
rhand -11.6699 -34.2808
rfingers 7.12502
rthumb 14.3751 -63.763
lclavicle -6.26172e-015 2.38542e-015
lhumerus -1.93451 20.2971 82.3466
lradius 124.001
lwrist 104.345
lhand -33.0227 -29.817
lfingers 7.12502
lthumb -6.23612 0.0711633
rfemur 0 0 0
rtibia 0
rfoot 0 0
rtoes 0
lfemur -6.92099 -5.35423 -11.0947
ltibia 22.303
lfoot -25.7733 18.9083
ltoes -53.3324
416
root -0.657177 18.7668 5.36929 4.37275 -6.63667 -3.23265
lowerback 6.96799 2.01069 -1.60859
upperback -0.262033 2.49196 -1.21923
thorax -4.19254 1.25592 -0.620329
lowerneck -8.68708 -4.05881 0.235146
upperneck 24.2721 -10.0697 16.8275
head 10.1052 -2.96994 4.75525
rclavicle 8.24956e-015 0
rhumerus 45.9757 43.0556 -30.7498
rradius 109.514
rwrist -8.06232
rhand -11.1544 -33.8889
rfingers 7.12502
rthumb 14.8718 -63.3352
lclavicle 8.24956e-015 0
lhumerus -2.1861 20.784 82.1794
lradius 124.331
lwrist 104.692
lhand -33.2681 -29.6601
lfingers 7.12502
lthumb -6.47304 0.221007
rfemur 0 0 0
rtibia 0
rfoot 0 0
rtoes 0
lfemur -7.05136 -5.19371 -11.1099
ltibia 22.3115
lfoot -25.5539 18.635
ltoes -53.3407
417
root -0.657355 18.7678 5.36856 4.36449 -6.47571 -3.14155
lowerback 6.80345 1.88396 -1.54816
upperback -0.0954745 2.34087 -1.07922
thorax -3.92992 1.18047 -0.483178
lowerneck -8.32858 -4.16745 0.130972
upperneck 24.0522 -10.0879 16.6165
head 9.94289 -3.04197 4.68971
rclavicle 2.22639e-014 -1.43125e-014
rhumerus 44.2483 42.9015 -31.1498
rradius 109.103
rwrist -8.27236
rhand -10.6679 -32.8636
rfingers 7.12502
rthumb 15.3403 -62.2746
lclavicle 2.22639e-014 -1.43125e-014
lhumerus -2.42985 21.2543 81.9446
lradius 124.757
lwrist 104.935
lhand -33.3525 -29.6683
lfingers 7.12502
lthumb -6.55448 0.210258
rfemur 0 0 0
rtibia 0
rfoot 0 0
rtoes 0
lfemur -7.10807 -5.14501 -11.1809
ltibia 22.3154
lfoot -25.379 18.4599
ltoes -53.4113
